#define hand_width 16
#define hand_height 16
#define hand_x_hot 0
#define hand_y_hot 0
static unsigned char hand_bits[] = {
0x00, 0x07,
0xC0, 0x1D, 
0x40, 0x75, 
0x40, 0x55, 
0x40, 0x55, 
0x40, 0x55, 
0x40, 0x55, 
0x44, 0x50, 
0x46, 0x40, 
0x52, 0x20, 
0x24, 0x20, 
0x08, 0x20, 
0x08, 0x10, 
0x10, 0x10, 
0x20, 0x08, 
0xC0, 0x0F, 
};

/*
0000000000000*** 
**000000000***0* 
0*0000000***0*0* 
0*0000000*0*0*0* 
0*0000000*0*0*0* 
0*0000000*0*0*0* 
0*0000000*0*0*0* 
0*000*000*0*0000 
0*00*0*00*000000 
0*0*00*00*000000 
00*00*0000*00000 
0000*00000*00000 
0000*000000*0000 
000*0000000*0000 
00*000000000*000 
**0000000000**** 
*/
