#define lineCursor_width 16
#define lineCursor_height 16
#define lineCursor_x_hot 7
#define lineCursor_y_hot 7
static char lineCursor_bits[] = {
 0x00,0xfc,0x00,0x84,0x00,0x84,0x00,0x84,0x00,0x84,0x00,0xfc,0x00,0x02,0x00,
 0x01,0x80,0x00,0x40,0x00,0x3f,0x00,0x21,0x00,0x21,0x00,0x21,0x00,0x21,0x00,
 0x3f,0x00};
