#define map_width 16
#define map_height 16
static unsigned char map_bits[] = {
   0xc0, 0x01, 0xb0, 0x06, 0x8c, 0x18, 0x94, 0x14, 0xe2, 0x23, 0x82, 0x20,
   0x81, 0x40, 0xff, 0x7f, 0x81, 0x40, 0x82, 0x20, 0xe2, 0x23, 0x94, 0x14,
   0x8c, 0x18, 0xb0, 0x06, 0xc0, 0x01, 0x00, 0x00};
