#define polygonCursor_width 16
#define polygonCursor_height 16
#define polygonCursor_x_hot 7
#define polygonCursor_y_hot 7
static unsigned char polygonCursor_bits[] = {
   0xfc, 0x00, 0x84, 0x00, 0x84, 0x00, 0x84, 0x01, 0x84, 0x02, 0xfc, 0x04,
   0x10, 0xfc, 0x10, 0x84, 0x08, 0x84, 0x08, 0x86, 0x3f, 0x85, 0xa1, 0xfc,
   0x61, 0x00, 0x21, 0x00, 0x21, 0x00, 0x3f, 0x00};
