#define zoomin_width 16
#define zoomin_height 16
#define zoomin_x_hot 5
#define zoomin_y_hot 5
static unsigned char zoomin_bits[] = {
   0xf0, 0x00, 0x0c, 0x03, 0x02, 0x04, 0x62, 0x04, 0x61, 0x08, 0xf9, 0x09,
   0xf9, 0x09, 0x61, 0x08, 0x62, 0x04, 0x02, 0x0c, 0x0c, 0x1f, 0xf0, 0x3f,
   0x00, 0x7c, 0x00, 0xf8, 0x00, 0xf0, 0x00, 0xe0};
